
<svg width="343" height="128" viewBox="0 0 343 128" fill="none" xmlns="http://www.w3.org/2000/svg">
<path d="M196.5 76C194.5 76 192.9 77.6 192.9 79.6C192.9 81.6 194.5 83.2 196.5 83.2C198.5 83.2 200.1 81.6 200.1 79.6C200.1 77.6 198.5 76 196.5 76Z" fill="#FFD100"/>
<path d="M264.9 76C262.9 76 261.3 77.6 261.3 79.6C261.3 81.6 262.9 83.2 264.9 83.2C266.9 83.2 268.5 81.6 268.5 79.6C268.6 77.6 266.9 76 264.9 76Z" fill="#FFD100"/>
<path d="M27.9 112.3C34.196 112.3 39.3 107.196 39.3 100.9C39.3 94.6039 34.196 89.5 27.9 89.5C21.604 89.5 16.5 94.6039 16.5 100.9C16.5 107.196 21.604 112.3 27.9 112.3Z" fill="#FFD100"/>
<path d="M88.7 42.6C94.996 42.6 100.1 37.496 100.1 31.2C100.1 24.9039 94.996 19.8 88.7 19.8C82.404 19.8 77.3 24.9039 77.3 31.2C77.3 37.496 82.404 42.6 88.7 42.6Z" fill="#FFD100"/>
<path d="M27.9 42.6C34.196 42.6 39.3 37.496 39.3 31.2C39.3 24.9039 34.196 19.8 27.9 19.8C21.604 19.8 16.5 24.9039 16.5 31.2C16.5 37.496 21.604 42.6 27.9 42.6Z" fill="#FFD100"/>
<path d="M134.4 75.8C135.4 76.7 135.9 78 135.9 79.6C135.9 81.2 135.4 82.5 134.5 83.4C133.5 84.3 132.1 84.8 130.1 84.8H126.7V74.4H130.3C132 74.4 133.4 74.9 134.4 75.8ZM134.1 79.6C134.1 77.2 132.7 76 130 76H128.3V83.1H130.2C131.5 83.1 132.4 82.8 133.1 82.2C133.8 81.6 134.1 80.8 134.1 79.6Z" fill="#2D2D2D"/>
<path d="M146.9 77.8C146.9 79.5 146.2 80.6 144.7 81L147.4 84.8H145.2L142.7 81.3H140.4V84.8H138.7V74.4H142.5C144.1 74.4 145.2 74.7 145.9 75.2C146.6 75.7 146.9 76.6 146.9 77.8ZM144.5 79.2C144.9 78.9 145 78.4 145 77.7C145 77 144.8 76.6 144.5 76.3C144.1 76 143.5 75.9 142.5 75.9H140.3V79.6H142.5C143.5 79.6 144.2 79.6 144.5 79.2Z" fill="#2D2D2D"/>
<path d="M157.3 74.4V76H151.8V78.7H156.8V80.3H151.8V83.1H157.5V84.7H150.1V74.4H157.3Z" fill="#2D2D2D"/>
<path d="M163.2 82.4L162.2 84.8H160.3L164.9 74.5H166.8L171.4 84.8H169.5L168.5 82.4H163.2ZM167.6 80.8L165.7 76.5L163.8 80.8H167.6Z" fill="#2D2D2D"/>
<path d="M175.7 84.8H174V74.4H176.7L179.8 80.9L182.9 74.4H185.6V84.7H183.9V76.6L180.3 83.8H179.3L175.7 76.6V84.8Z" fill="#2D2D2D"/>
<path d="M209.1 84.8H207.4V74.4H210.1L213.2 80.9L216.3 74.4H219V84.7H217.3V76.6L213.7 83.8H212.7L209.1 76.6V84.8Z" fill="#2D2D2D"/>
<path d="M224.6 82.4L223.6 84.8H221.7L226.3 74.5H228.2L232.8 84.8H230.9L229.9 82.4H224.6ZM229 80.8L227.1 76.5L225.2 80.8H229Z" fill="#2D2D2D"/>
<path d="M235.3 74.4H237V79.4L241.7 74.4H243.9L239.7 78.9L243.9 84.7H241.8L238.4 80.2L236.9 81.8V84.7H235.2L235.3 74.4Z" fill="#2D2D2D"/>
<path d="M253.9 74.4V76H248.4V78.7H253.4V80.3H248.4V83.1H254.1V84.7H246.7V74.4H253.9Z" fill="#2D2D2D"/>
<path d="M284.1 77.8C284.1 79.5 283.4 80.6 281.9 81L284.6 84.8H282.4L279.9 81.3H277.6V84.8H275.9V74.4H279.7C281.3 74.4 282.4 74.7 283.1 75.2C283.7 75.8 284.1 76.6 284.1 77.8ZM281.7 79.2C282.1 78.9 282.2 78.4 282.2 77.7C282.2 77 282 76.6 281.7 76.3C281.3 76 280.7 75.9 279.7 75.9H277.5V79.6H279.7C280.7 79.6 281.4 79.6 281.7 79.2Z" fill="#2D2D2D"/>
<path d="M295 74.4V76H289.5V78.7H294.5V80.3H289.5V83.1H295.2V84.7H287.8V74.4H295Z" fill="#2D2D2D"/>
<path d="M305.4 75.2C306.1 75.8 306.5 76.7 306.5 78C306.5 79.3 306.1 80.2 305.4 80.8C304.7 81.4 303.5 81.7 302 81.7H300.2V84.7H298.5V74.4H302.1C303.5 74.4 304.7 74.6 305.4 75.2ZM304.2 79.6C304.6 79.2 304.7 78.7 304.7 78C304.7 77.3 304.5 76.8 304 76.5C303.6 76.2 302.9 76.1 301.9 76.1H300.1V80.2H302.1C303.2 80.1 303.8 79.9 304.2 79.6Z" fill="#2D2D2D"/>
<path d="M317 74.4V76H311.5V78.7H316.5V80.3H311.5V83.1H317.2V84.7H309.8V74.4H317Z" fill="#2D2D2D"/>
<path d="M321.9 82.4L320.9 84.8H319L323.6 74.5H325.5L330.1 84.8H328.2L327.2 82.4H321.9ZM326.4 80.8L324.5 76.5L322.6 80.8H326.4Z" fill="#2D2D2D"/>
<path d="M335.7 75.9V84.6H334V75.9H330.9V74.3H338.9V75.9H335.7Z" fill="#2D2D2D"/>
<path d="M293.6 58.2V28C293.6 20.2 295.6 14.2 299.6 10.2C303.6 6.09999 309.1 4.09999 316.2 4.09999C323.3 4.09999 328.8 6.09999 332.8 10.1C336.8 14.1 338.7 19.9 338.7 27.5V58.1H326.8V45.8H305.3V58.2H293.6ZM305.4 27.6V35.3H326.9V28C326.9 23.8 325.9 20.5 324 18.1C322.1 15.7 319.5 14.6 316.1 14.6C312.7 14.6 310.1 15.7 308.2 18C306.4 20.2 305.4 23.4 305.4 27.6Z" fill="#FFD100"/>
<path d="M149.6 58.2H126.5V5.49999H147C150.6 5.49999 153.6 5.89999 156.2 6.79999C158.8 7.69999 160.7 8.79999 162 10.3C164.4 13 165.5 16.1 165.5 19.5C165.5 23.6 164.2 26.7 161.5 28.7C160.6 29.4 160 29.8 159.6 30C159.2 30.2 158.6 30.5 157.7 30.9C161 31.6 163.6 33.1 165.5 35.3C167.4 37.5 168.4 40.3 168.4 43.6C168.4 47.3 167.1 50.5 164.6 53.3C161.9 56.6 156.8 58.2 149.6 58.2ZM138.3 26.8H143.9C147.2 26.8 149.6 26.4 151.2 25.7C152.8 25 153.6 23.5 153.6 21.1C153.6 18.8 152.9 17.2 151.4 16.5C149.9 15.7 147.5 15.4 144 15.4H138.3V26.8ZM138.3 48.2H146.4C149.8 48.2 152.3 47.8 154 47C155.7 46.2 156.5 44.5 156.5 42.1C156.5 39.7 155.6 38.1 153.8 37.3C152 36.5 149.2 36.1 145.2 36.1H138.3V48.2Z" fill="#FFD100"/>
<path d="M187.8 58.2H176V5.49999H187.8V58.2Z" fill="#FFD100"/>
<path d="M196.5 58.2V5.49999H208.3V47.7H230.8V58.2H196.5Z" fill="#FFD100"/>
<path d="M278.8 12.4C283.8 17 286.3 23.4 286.3 31.6C286.3 39.8 283.9 46.3 279 51C274.1 55.8 266.6 58.2 256.6 58.2H238.6V5.49999H257.2C266.5 5.49999 273.8 7.79999 278.8 12.4ZM270.2 43.7C273.1 41 274.5 37 274.5 31.9C274.5 26.7 273.1 22.7 270.2 20C267.3 17.2 262.9 15.8 256.9 15.8H250.3V47.8H257.8C263.1 47.8 267.3 46.4 270.2 43.7Z" fill="#FFD100"/>
<path d="M88.8 4.29999C88.7 4.29999 88.6 4.29999 88.6 4.29999C73.7 4.29999 61.6 16.4 61.6 31.3C61.6 36.8 63.2 42 66.3 46.6H58.5V58.3H88.8C103.7 58.3 115.8 46.2 115.8 31.3C115.8 16.4 103.7 4.29999 88.8 4.29999ZM89.3 46.6H88.4C80.2 46.4 73.6 39.6 73.6 31.3C73.6 22.9 80.4 16.1 88.8 16C97.2 16.1 104 22.9 104 31.3C104 39.4 97.7 46 89.8 46.5C89.6 46.5 89.4 46.6 89.3 46.6Z" fill="#2D2D2D"/>
<path d="M111.3 85.3H58.6V73.8H111.3L115.7 79.5L111.3 85.3Z" fill="#2D2D2D"/>
<path d="M27.9 4.49999C13 4.49999 0.899994 16.6 0.899994 31.5C0.899994 46.4 13 58.5 27.9 58.5H39.5V46.8H27.9C19.5 46.8 12.6 39.9 12.6 31.5C12.6 23.1 19.5 16.2 27.9 16.2C36.3 16.2 43.2 23.1 43.2 31.5V100.7C43.2 109.1 36.3 116 27.9 116C19.5 116 12.6 109.1 12.6 100.7C12.6 92.3 19.5 85.4 27.9 85.4H39.5V73.7H27.9C13 73.7 0.899994 85.8 0.899994 100.7C0.899994 115.6 13 127.7 27.9 127.7C42.8 127.7 54.9 115.6 54.9 100.7V31.5C54.9 16.6 42.8 4.49999 27.9 4.49999Z" fill="#2D2D2D"/>
<path d="M341.1 1.7C341.8 2.4 342.1 3.1 342.1 4.1C342.1 5 341.8 5.8 341.1 6.5C340.4 7.2 339.7 7.5 338.7 7.5C337.8 7.5 337 7.2 336.3 6.5C335.7 5.8 335.3 5.1 335.3 4.1C335.3 3.2 335.6 2.4 336.3 1.7C337 0.999997 337.7 0.699997 338.7 0.699997C339.7 0.699997 340.4 1.1 341.1 1.7ZM340.8 6.2C341.4 5.6 341.7 4.9 341.7 4.1C341.7 3.3 341.4 2.6 340.9 2C340.3 1.4 339.6 1.1 338.8 1.1C338 1.1 337.3 1.4 336.7 2C336.1 2.6 335.9 3.3 335.9 4.1C335.9 4.9 336.2 5.6 336.7 6.2C337.3 6.8 337.9 7.1 338.8 7.1C339.5 7 340.2 6.8 340.8 6.2ZM340.3 3.5C340.3 4.1 340 4.5 339.5 4.6L340.5 5.9H339.7L338.8 4.7H338V5.9H337.4V2.3H338.8C339.3 2.3 339.7 2.4 340 2.6C340.2 2.7 340.3 3 340.3 3.5ZM339.5 4C339.6 3.9 339.7 3.7 339.7 3.5C339.7 3.3 339.6 3.1 339.5 3C339.4 2.9 339.1 2.9 338.8 2.9H338V4.2H338.7C339.2 4.1 339.4 4.1 339.5 4Z" fill="#2D2D2D"/>
</svg>
