
<svg xmlns="http://www.w3.org/2000/svg" viewBox="0 0 216 105">
  <!-- Copyright © 2020 REV Robotics LLC -->
  <!-- revrobotics.com -->
  <path fill="#f05a28" d="M43 91c0 3 2 4 4 4s3-1 3-4c0-1-1-3-3-3s-4 2-4 3m11 0c0 4-3 7-7 7s-7-3-7-7c0-3 3-6 7-6 3 0 7 3 7 6M97 91c0 3 2 4 4 4 1 0 3-1 3-4l-3-3c-2 0-4 2-4 3m11 0c0 4-3 7-7 7-5 0-7-3-7-7 0-3 3-6 7-6 3 0 7 3 7 6M128 98h-3V88h-3v-3h8v3h-2zM149 98h-4V85h4zM174 90l-3-2c-2 0-4 2-4 4s2 3 4 3l3-1v4h-3c-2 0-4 0-5-2l-2-4 2-5a7 7 0 018-1zM26 98l-4-5c2-1 3-2 3-4 0-3-2-4-5-4h-5v13h4V88l2 1-1 2v4l2 3zM73 95h-1v-7h1l2 1-1 1v3l1 1-2 1m3-4l2-2c0-3-2-4-4-4h-5v13h5c2 0 5-1 5-4 0-1-1-3-3-3M195 90h-1l-1-1 1-1 4 1v-3l-4-1c-3 0-5 2-5 4 0 3 2 3 4 4l2 1-2 1-3-1h-1v3l4 1 4-1 1-3c0-2-1-3-3-4"/>
  <path fill="#000" d="M192 6l-19 32-18-32h-18l36 63 37-63zM151 54H96l6-11h43l-7-11h-29l6-10h17l-9-16H93l6 12-29 51h90zM35 34l7-12h23l-7 12zm50-16L79 6H20l7 13L6 54l9 15 20-35 21 35 9-15-5-9h9z"/>
</svg>
